# xmcd
#
# Track frame offsets:
#	150
#	13980
#	27834
#	44973
#	60864
#	82710
#	98615
#	117073
#	134127
#	157552
#	171908
#
# Disc length: 2454 seconds
#
# Revision: 1
# Processed by: cddbd v1.5.1PL2 Copyright (c) Steve Scherf et al.
# Submitted via: dBpowerAMP V4.0
#
DISCID=8009940b
DTITLE=Sonny Lim - Slack Key Guitar - The Artistry of Sonny Lim
DYEAR=2005
DGENRE=Instrumental
TTITLE0=Hoku'ula
TTITLE1=Pau Hana Rag
TTITLE2=Malie
TTITLE3=How D'ya Do
TTITLE4=Lauele
TTITLE5=Punahoa Special
TTITLE6=Donna's Smile
TTITLE7=Aua A'ala
TTITLE8=Kohala Medley
TTITLE9=Mauna Loa Slack Key
TTITLE10=Mauna Kea Morning
EXTD=
EXTT0=
EXTT1=
EXTT2=
EXTT3=
EXTT4=
EXTT5=
EXTT6=
EXTT7=
EXTT8=
EXTT9=
EXTT10=
PLAYORDER=
